<svg width="81" height="80" viewBox="0 0 81 80" fill="none" xmlns="http://www.w3.org/2000/svg"><path d="M79.13 20.287H48.549v-3.412h4.604a1 1 0 001-1V1a1 1 0 00-1-1H27.11a1 1 0 00-1 1v14.875a1 1 0 001 1h4.604v3.412H1.13a1 1 0 00-1 1V79a1 1 0 001 1h78a1 1 0 001-1V21.287a1 1 0 00-1-1zm-51.02-5.412V2h24.04v12.875H28.11zm18.438 2v3.412H33.715v-3.412h12.833zM2.13 38.623h21.412a21.324 21.324 0 00-4.841 13.544c0 5.271 1.922 10.096 5.09 13.833H2.13V38.623zm38-5.885c10.714 0 19.43 8.716 19.43 19.429 0 10.714-8.716 19.43-19.43 19.43-10.713 0-19.43-8.716-19.43-19.43 0-10.713 8.717-19.429 19.43-19.429zM78.13 78h-76V68h23.586c.007 0 .013-.004.02-.004 3.809 3.467 8.85 5.601 14.394 5.601 5.544 0 10.586-2.134 14.395-5.601.007 0 .013.004.02.004H78.13v10zm0-12H56.47c3.168-3.737 5.09-8.562 5.09-13.833a21.32 21.32 0 00-4.841-13.544h21.41V66h.002zm0-29.377H54.838c-3.842-3.637-9.012-5.885-14.707-5.885s-10.865 2.248-14.706 5.885H2.13V22.287h76v14.336z" fill="#050514"/><path d="M6.62 32.919h11.834a1 1 0 001-1v-5.344a1 1 0 00-1-1H6.62a1 1 0 00-1 1v5.344a1 1 0 001 1zm1-5.344h9.834v3.344H7.62v-3.344zM71.023 33.301a4.058 4.058 0 004.053-4.054 4.058 4.058 0 00-4.053-4.053 4.057 4.057 0 00-4.053 4.053 4.06 4.06 0 004.053 4.054zm0-6.107c1.132 0 2.053.921 2.053 2.053a2.056 2.056 0 01-2.053 2.054 2.056 2.056 0 01-2.053-2.054 2.057 2.057 0 012.053-2.053zM61.078 33.301a4.058 4.058 0 004.053-4.054 4.058 4.058 0 00-4.053-4.053 4.057 4.057 0 00-4.053 4.053 4.059 4.059 0 004.053 4.054zm0-6.107c1.132 0 2.053.921 2.053 2.053a2.056 2.056 0 01-2.053 2.054 2.056 2.056 0 01-2.053-2.054c0-1.132.921-2.053 2.053-2.053zM40.13 68.487c9 0 16.32-7.321 16.32-16.32 0-8.998-7.32-16.319-16.32-16.319-8.998 0-16.319 7.321-16.319 16.319 0 8.999 7.322 16.32 16.32 16.32zm0-30.639c7.896 0 14.32 6.424 14.32 14.319 0 7.896-6.424 14.32-14.32 14.32s-14.319-6.424-14.319-14.32 6.423-14.319 14.32-14.319z" fill="#050514"/><path d="M40.293 42.663c5.151 0 9.343 4.191 9.343 9.343a1 1 0 102 0c0-6.255-5.088-11.343-11.343-11.343a1 1 0 100 2zM11.214 8.438a1 1 0 001 1h6.17a1 1 0 100-2h-6.17a1 1 0 00-1 1zM21.114 3.981L16.751.241a.999.999 0 10-1.301 1.517l4.363 3.74c.188.162.42.241.65.241a.993.993 0 00.759-.35.996.996 0 00-.108-1.408zM19.813 11.36L15.45 15.1a.997.997 0 00-.108 1.41.996.996 0 001.41.109l4.362-3.74a.997.997 0 00.108-1.41.998.998 0 00-1.409-.108zM60.83 8.423a1 1 0 001 1H68a1 1 0 100-2h-6.17a1 1 0 00-1 1zM59.1 12.879l4.363 3.74c.188.162.42.241.65.241a.993.993 0 00.759-.35.998.998 0 00-.108-1.409l-4.363-3.74a.999.999 0 10-1.301 1.518zM63.463.241L59.1 3.981a.997.997 0 00-.108 1.409.996.996 0 001.409.109l4.363-3.74A.997.997 0 0064.872.35a.998.998 0 00-1.41-.109z" fill="#050514"/></svg>