<svg width="78" height="80" viewBox="0 0 78 80" fill="none" xmlns="http://www.w3.org/2000/svg"><path d="M49.658 48.278H28.592a1 1 0 00-1 1v6.451a1 1 0 001 1h21.066a1 1 0 001-1v-6.451a1 1 0 00-1-1zm-1 6.451H29.592v-4.451h19.066v4.451zM15.75 46.848a5.663 5.663 0 00-5.657 5.656 5.663 5.663 0 005.657 5.656 5.662 5.662 0 005.656-5.656 5.662 5.662 0 00-5.656-5.656zm0 9.312a3.66 3.66 0 01-3.657-3.656 3.662 3.662 0 013.657-3.656 3.66 3.66 0 013.656 3.656 3.66 3.66 0 01-3.656 3.656zM62.5 46.848a5.662 5.662 0 00-5.656 5.656A5.662 5.662 0 0062.5 58.16a5.663 5.663 0 005.657-5.656 5.663 5.663 0 00-5.657-5.656zm0 9.312a3.66 3.66 0 01-3.656-3.656 3.661 3.661 0 013.656-3.656 3.66 3.66 0 013.657 3.656A3.66 3.66 0 0162.5 56.16z" fill="#050514"/><path d="M76.552 61.887h-1.38V48.174c0-5.172-4.13-9.388-9.265-9.547l-2.97-17.494c-.688-3.796-3.745-6.551-7.268-6.551H22.581c-3.522 0-6.579 2.755-7.27 6.562l-2.968 17.482c-5.135.159-9.265 4.374-9.265 9.547v13.713h-1.38a1 1 0 00-1 1v5.469a1 1 0 001 1H6.65v5.364a5.287 5.287 0 005.281 5.28 5.286 5.286 0 005.28-5.28v-5.364h43.828v5.364a5.286 5.286 0 005.28 5.28 5.287 5.287 0 005.281-5.28v-5.364h4.951a1 1 0 001-1v-5.469a.997.997 0 00-.998-.999zm-59.27-40.396c.516-2.844 2.744-4.908 5.3-4.908h33.087c2.555 0 4.783 2.064 5.297 4.896l2.91 17.133h-49.5l2.906-17.121zM5.078 48.174c0-4.17 3.392-7.562 7.562-7.562h52.97c4.17 0 7.562 3.392 7.562 7.562v13.713H5.078V48.174zM15.211 74.72a3.284 3.284 0 01-3.28 3.28 3.284 3.284 0 01-3.28-3.28v-5.364h6.561v5.364zm54.39 0a3.284 3.284 0 01-3.28 3.28 3.284 3.284 0 01-3.28-3.28v-5.364h6.561v5.364zm5.951-7.365H2.698v-3.469h72.854v3.469zM34.943.538c-1.629.674-3.105 2.59-2.498 5.202.961 4.134 6.09 6.231 6.308 6.319a.996.996 0 00.744 0c.218-.088 5.348-2.186 6.308-6.319.607-2.612-.868-4.527-2.497-5.202a3.93 3.93 0 00-4.183.749 3.927 3.927 0 00-4.182-.749zm3.332 2.839a1.003 1.003 0 001.699 0c.638-1.022 1.599-1.39 2.569-.991.902.374 1.659 1.416 1.314 2.901-.599 2.575-3.669 4.241-4.738 4.75-1.41-.659-4.177-2.389-4.727-4.75-.345-1.485.412-2.527 1.315-2.901.258-.106.516-.159.767-.159.693 0 1.335.399 1.801 1.15zM58.25 2.73A3.902 3.902 0 0055 .049c-1.732-.218-3.95.726-4.7 3.282-1.183 4.043 2.229 8.354 2.375 8.536a1 1 0 00.647.365c.073.01.669.085 1.54.085 1.882 0 5.047-.352 6.99-2.475 1.8-1.965 1.457-4.342.377-5.72A3.911 3.911 0 0058.25 2.73zm2.129 5.762c-1.763 1.925-5.208 1.877-6.387 1.795-.68-.968-2.505-3.889-1.771-6.393.423-1.447 1.584-1.984 2.538-1.859 1.03.125 1.676.909 1.728 2.097a1 1 0 001.48.834c1.045-.571 2.05-.424 2.689.393.595.759.74 2.023-.277 3.133zM23.388 12.344c.87 0 1.467-.075 1.54-.085a.998.998 0 00.647-.365c.146-.182 3.558-4.492 2.374-8.536-.75-2.556-2.953-3.485-4.7-3.282A3.903 3.903 0 0020 2.758a3.91 3.91 0 00-3.98 1.394c-1.08 1.377-1.422 3.755.377 5.719 1.945 2.121 5.11 2.473 6.992 2.473zm-5.793-6.959c.382-.488.895-.736 1.467-.736.388 0 .802.113 1.223.344a1 1 0 001.48-.834c.052-1.188.697-1.973 1.728-2.098.954-.112 2.114.412 2.538 1.859.733 2.505-1.092 5.425-1.771 6.393-1.18.086-4.625.131-6.387-1.795-1.02-1.111-.874-2.374-.278-3.133z" fill="#050514"/></svg>