<svg width="81" height="80" viewBox="0 0 81 80" fill="none" xmlns="http://www.w3.org/2000/svg"><path d="M35.331 44.279h9.405a1 1 0 001-1v-7.211a5.709 5.709 0 00-5.702-5.703 5.71 5.71 0 00-5.703 5.703v7.211a1 1 0 001 1zm1-8.211a3.707 3.707 0 013.703-3.703 3.707 3.707 0 013.702 3.703v6.211h-7.405v-6.211zM41.034 16.035v-4.13h1.562a1 1 0 100-2h-1.562V7.846a1 1 0 10-2 0v2.059H37.51a.999.999 0 100 2h1.524v4.13a1 1 0 102 0zM36.105 69.688a1 1 0 001-1v-2.5a1 1 0 10-2 0v2.5a1 1 0 001 1zM44.001 65.188a1 1 0 00-1 1v2.5a1 1 0 102 0v-2.5a1 1 0 00-1-1z" fill="#050514"/><path d="M1.125 80h12.906l.005.001.005-.001h52.168l.005.001.005-.001h12.906a1 1 0 001-1V53.625a1 1 0 00-.563-.899l-12.348-5.992v-11.79l6.209 2.97a1.002 1.002 0 001.334-.47 1.001 1.001 0 00-.471-1.334L57.36 28.013V10.352l3.24 1.55a1.002 1.002 0 001.334-.47 1.001 1.001 0 00-.471-1.334l-20.907-10a.997.997 0 00-.863 0l-20.907 10a1.001 1.001 0 00.863 1.805l3.163-1.513v17.66L5.963 36.108a1.001 1.001 0 00.863 1.805l6.209-2.97v11.806L.668 53.11a1 1 0 00-.543.89v25a1 1 0 001 1zm66.089-31.044l10.911 5.295V78H67.214V48.956zM39.061 78h-7.666V60.94c0-4.406 3.369-8.039 7.666-8.461V78zm9.338 0H41.06V52.527c4.138.571 7.339 4.121 7.339 8.414V78zM24.812 9.433l15.312-7.324 15.235 7.287v17.661l-14.804-7.08a.997.997 0 00-.863 0l-14.881 7.117V9.433h.001zm-9.776 24.554l25.089-12 25.089 12V78H50.399V60.94c0-5.791-4.712-10.503-10.503-10.503S29.395 55.149 29.395 60.94V78H15.036V33.987zM2.125 54.61l10.911-5.612V78H2.125V54.61z" fill="#050514"/></svg>