<svg width="80" height="81" viewBox="0 0 80 81" fill="none" xmlns="http://www.w3.org/2000/svg"><path d="M63.145 36.556a8.833 8.833 0 00-1.794-.618 1.003 1.003 0 00-1.13.556l-6.388 13.842a1 1 0 00.311 1.221c.475.354.988.662 1.526.915a8.765 8.765 0 003.733.839 8.807 8.807 0 002.99-.526 8.732 8.732 0 004.973-4.532c2.06-4.389.167-9.635-4.22-11.697zm2.41 10.845a6.748 6.748 0 01-3.843 3.501 6.748 6.748 0 01-5.704-.509l5.668-12.282a6.8 6.8 0 013.878 9.29z" fill="#050514"/><path d="M63.456 45.285l-.731-.343a1 1 0 00-.851 1.811l.731.343a1 1 0 00.851-1.811zM61.065 47.464a1.001 1.001 0 00-1.95.439l.255 1.137a1 1 0 001.952-.439l-.257-1.137zM62.86 41.599l-.965.502a1 1 0 00.921 1.775l.966-.502a1 1 0 00-.921-1.775zM71.427 12.771a1 1 0 001 1h2.626a1 1 0 000-2h-2.626a1 1 0 00-1 1zM69.11 8.454V5.828a1 1 0 00-2 0v2.626a1 1 0 002 0zM72.312 18.387a.997.997 0 001.414 0 .999.999 0 000-1.414l-1.857-1.857a.999.999 0 10-1.414 1.414l1.857 1.857zM63.908 7.154a.999.999 0 10-1.414 1.414l1.857 1.857a.997.997 0 001.414 0 .999.999 0 000-1.414l-1.857-1.857zM71.163 10.718a.997.997 0 00.707-.293l1.857-1.857a.999.999 0 10-1.414-1.414l-1.857 1.857a.999.999 0 00.707 1.707z" fill="#050514"/><path d="M42.73 30.109c-4.623 7.229-5.553 16.063-2.313 21.981 1.833 3.347 5.812 7.301 14.337 7.597v19.279h-6.396a1 1 0 000 2H63.15a1 1 0 000-2h-6.396V59.687c8.526-.296 12.505-4.25 14.338-7.597 3.24-5.918 2.31-14.752-2.314-21.982-1.567-2.45-2-4.281-1.89-6.176.958.129 1.943.155 2.019.156 6.89-.033 11.007-5.781 11.007-11.318C79.914 6.261 74.619.966 68.11.966c-6.22 0-11.317 4.837-11.761 10.944H43.527a1 1 0 00-.995 1.104c.279 2.682.807 4.783 1.273 6.637.988 3.93 1.585 6.302-1.074 10.458zM69.339 51.13c-2.357 4.305-7.054 6.583-13.583 6.586-6.53-.003-11.227-2.281-13.583-6.586-2.9-5.296-1.998-13.311 2.244-19.943.49-.768.876-1.489 1.188-2.181l.282-.125c1.35-.606 2.627-1.178 5.023-1.178 2.392 0 3.668.571 5.019 1.176 1.484.665 3.018 1.352 5.838 1.352 1.975 0 3.32-.347 4.366-.735.269.542.585 1.103.96 1.691 4.244 6.632 5.146 14.646 2.246 19.943zM68.11 2.966c5.406 0 9.804 4.398 9.804 9.804 0 4.559-3.373 9.291-8.987 9.319a18.86 18.86 0 01-1.764-.138c.146-.719.334-1.474.542-2.3.466-1.854.994-3.955 1.273-6.637a1 1 0 00-.995-1.104H58.35c.437-5.004 4.644-8.944 9.76-8.944zm-1.255 10.945c-.281 2.036-.708 3.731-1.09 5.253-.74 2.937-1.357 5.422-.387 8.476-.89.324-1.977.589-3.612.589-2.393 0-3.67-.572-5.021-1.177-1.483-.664-3.018-1.351-5.836-1.351-1.99 0-3.335.344-4.477.778.506-2.545-.044-4.759-.687-7.316-.382-1.522-.81-3.217-1.09-5.253h22.2v.001z" fill="#050514"/><path d="M56.208 34.416l-2.787-2.787a1.874 1.874 0 00-2.645 0l-2.786 2.787a1.858 1.858 0 00-.548 1.323c0 .5.194.97.547 1.322l2.787 2.788c.365.364.843.546 1.322.546a1.86 1.86 0 001.322-.547l2.787-2.787a1.87 1.87 0 00.001-2.645zM52.1 38.342l-2.604-2.604 2.604-2.604 2.604 2.604-2.604 2.604zM51.212 42.722a1.873 1.873 0 00-2.445-1.007l-3.64 1.515a1.872 1.872 0 00-1.006 2.446l1.515 3.638c.19.46.55.819 1.014 1.01a1.866 1.866 0 001.431-.001l3.639-1.515a1.872 1.872 0 001.007-2.446l-1.515-3.64zm-3.78 5.704l-1.415-3.399 3.399-1.415 1.415 3.399-3.398 1.415zM30.624 12.042a1 1 0 001 1h2.44a1 1 0 000-2h-2.44a1 1 0 00-1 1zM28.614 8.031v-2.44a1 1 0 00-2 0v2.44a1 1 0 002 0zM31.468 17.31a.997.997 0 001.415 0 .999.999 0 000-1.414l-1.727-1.726a.999.999 0 10-1.413 1.414l1.726 1.726zM23.759 6.773a.999.999 0 10-1.414 1.414l1.726 1.725a.997.997 0 001.414 0 .999.999 0 000-1.414l-1.726-1.725zM30.45 10.206a.997.997 0 00.707-.293l1.726-1.725a.999.999 0 10-1.415-1.414l-1.726 1.725a.999.999 0 00.707 1.707z" fill="#050514"/><path d="M1.378 80.966h26.25a1 1 0 001-1V22.798c.029.003.055.017.085.017h.005c6.51-.032 10.402-5.463 10.402-10.696C39.12 5.97 34.117.967 27.968.967c-5.887 0-10.71 4.588-11.113 10.374h-8.33L7.094 1.819a1 1 0 10-1.977.297l1.386 9.226H1.379a1 1 0 00-1 1v67.625a.999.999 0 00.999.999zm1-2v-53.95l.242-.099c1.563-.648 3.057-1.256 5.726-1.311l5.567 37.055a1 1 0 101.977-.296L10.378 23.68c1.896.192 3.144.699 4.438 1.235 1.747.724 3.553 1.473 6.864 1.473 2.21 0 3.744-.344 4.948-.741v53.319H2.378zm25.59-75.999c5.046 0 9.152 4.106 9.152 9.152 0 4.254-3.146 8.67-8.412 8.696-.028 0-.052.014-.08.017v-8.491a1 1 0 00-1-1h-8.773c.397-4.683 4.329-8.374 9.113-8.374zm-1.34 10.374v10.187c-1.188.448-2.612.86-4.948.86-2.912 0-4.46-.641-6.098-1.32-1.491-.618-3.034-1.25-5.51-1.422l-1.247-8.305h17.803zm-19.825 0l1.243 8.274c-2.575.086-4.2.641-5.668 1.239v-9.513h4.425z" fill="#050514"/></svg>