<svg width="307" height="111" viewBox="0 0 307 111" fill="none" xmlns="http://www.w3.org/2000/svg">
<g clip-path="url(#clip0)">
<path d="M293.33 102.34V83.2799C293.301 82.5756 293.379 81.871 293.56 81.1899C293.777 80.7152 294.162 80.3376 294.64 80.1299C295.358 79.7908 296.137 79.6004 296.93 79.5699V78.7799H288.58V79.5699C289.371 79.5507 290.16 79.6692 290.91 79.9199C291.448 80.0796 291.905 80.4369 292.19 80.9199C292.459 81.5962 292.571 82.3242 292.52 83.0499V96.7999L278.88 78.7999H272.07V79.5799C272.876 79.5254 273.685 79.6134 274.46 79.8399C274.666 79.9639 274.842 80.1308 274.976 80.3294C275.111 80.5279 275.201 80.7533 275.24 80.9899C275.451 82.1608 275.535 83.351 275.49 84.5399V96.7299C275.524 97.6167 275.467 98.5047 275.32 99.3799C275.13 99.8427 274.773 100.217 274.32 100.43C273.531 100.802 272.673 101.007 271.8 101.03V101.81H280.4V101C279.454 101.057 278.508 100.875 277.65 100.47C277.146 100.24 276.747 99.8295 276.53 99.3199C276.368 98.4532 276.304 97.5709 276.34 96.6899V80.6899L292.62 102.27L293.33 102.34ZM240.33 92.5599L244.38 82.7399L248.46 92.5599H240.33ZM250.51 97.5599C250.857 98.2698 251.119 99.0184 251.29 99.7899C251.319 99.9974 251.277 100.208 251.172 100.39C251.067 100.571 250.904 100.712 250.71 100.79C249.98 101.002 249.219 101.087 248.46 101.04V101.82H257.51V101C256.864 100.972 256.238 100.768 255.7 100.41C255.265 100.074 254.921 99.6337 254.7 99.1299L253.7 96.7199L246 78.4699H245.35L238.65 94.4699C238.16 95.6199 237.89 96.2699 237.83 96.4699C237.414 97.7347 236.807 98.9284 236.03 100.01C235.425 100.627 234.621 101.009 233.76 101.09V101.87H240.62V101C239.975 101.028 239.338 100.842 238.81 100.47C238.575 100.284 238.389 100.045 238.267 99.7712C238.145 99.4977 238.091 99.1987 238.11 98.8999C238.338 97.4592 238.78 96.0605 239.42 94.7499L240.01 93.2899H248.76L250.51 97.5599ZM211.88 95.7999C211.912 97.0255 211.858 98.2518 211.72 99.4699C211.688 99.7029 211.607 99.9265 211.483 100.126C211.359 100.326 211.195 100.498 211 100.63C210.379 100.931 209.689 101.062 209 101.01H208.2V101.79H218.68V101H218.16C217.432 101.067 216.7 100.925 216.05 100.59C215.856 100.44 215.695 100.251 215.576 100.036C215.457 99.8213 215.384 99.5843 215.36 99.3399C215.25 98.16 215.21 96.9746 215.24 95.7899V84.5199C215.196 83.3073 215.253 82.0931 215.41 80.8899C215.449 80.6817 215.533 80.4844 215.655 80.3118C215.778 80.1391 215.936 79.9951 216.12 79.8899C216.833 79.6463 217.589 79.551 218.34 79.6099H218.67V78.8199H208.15V79.6099H208.76C209.53 79.5465 210.304 79.6488 211.03 79.9099C211.213 80.0371 211.367 80.202 211.48 80.3934C211.594 80.5849 211.666 80.7985 211.69 81.0199C211.825 82.1948 211.875 83.3778 211.84 84.5599V89.1299H199.84V84.5199C199.797 83.307 199.857 82.0926 200.02 80.8899C200.057 80.6824 200.139 80.4854 200.26 80.3127C200.381 80.14 200.538 79.9957 200.72 79.8899C201.43 79.6476 202.182 79.5524 202.93 79.6099H203.35V78.8199H193V79.6099H193.42C194.19 79.5465 194.964 79.6488 195.69 79.9099C195.875 80.037 196.031 80.2014 196.148 80.3926C196.265 80.5839 196.341 80.7976 196.37 81.0199C196.514 82.1941 196.567 83.3776 196.53 84.5599V95.8599C196.567 97.0855 196.513 98.3122 196.37 99.5299C196.332 99.7621 196.247 99.9843 196.122 100.183C195.997 100.383 195.833 100.555 195.64 100.69C195.002 100.996 194.295 101.127 193.59 101.07H193V101.85H203.35V101H202.76C202.035 101.067 201.307 100.924 200.66 100.59C200.47 100.437 200.311 100.248 200.194 100.033C200.078 99.8187 200.005 99.583 199.98 99.3399C199.859 98.1607 199.812 96.975 199.84 95.7899V90.2599H211.84V95.8199L211.88 95.7999ZM156.44 81.0599C156.746 80.4737 157.254 80.0187 157.87 79.7799C158.859 79.5996 159.866 79.5291 160.87 79.5699H164.29V95.8199C164.322 97.0455 164.268 98.2717 164.13 99.4899C164.092 99.7221 164.007 99.9443 163.882 100.143C163.757 100.343 163.593 100.515 163.4 100.65C162.777 100.947 162.088 101.078 161.4 101.03H160.21V101.81H171.68V101H170.5C169.775 101.067 169.047 100.924 168.4 100.59C168.204 100.442 168.041 100.254 167.922 100.038C167.803 99.8231 167.731 99.5851 167.71 99.3399C167.597 98.1602 167.554 96.9748 167.58 95.7899V79.5699H171.29C172.186 79.5312 173.084 79.6085 173.96 79.7999C174.57 80.0201 175.086 80.4439 175.42 80.9999C175.988 82.0161 176.352 83.1339 176.49 84.2899H177.22L177.1 78.7499H154.77L154.65 84.2899H155.43C155.548 83.1453 155.888 82.0346 156.43 81.0199L156.44 81.0599ZM125.43 92.5199L129.49 82.6999L133.57 92.5199H125.43ZM135.62 97.5199C135.967 98.2298 136.229 98.9784 136.4 99.7499C136.418 99.9573 136.371 100.165 136.265 100.344C136.159 100.524 136 100.665 135.81 100.75C135.08 100.963 134.319 101.048 133.56 101V101.78H142.56V101C141.914 100.972 141.288 100.768 140.75 100.41C140.315 100.074 139.971 99.6337 139.75 99.1299L138.7 96.7199L131 78.4199H130.34L123.65 94.4199C123.16 95.5699 122.89 96.2199 122.83 96.4199C122.414 97.6847 121.807 98.8784 121.03 99.9599C120.427 100.58 119.622 100.964 118.76 101.04V101.82H125.6V101C124.955 101.027 124.319 100.841 123.79 100.47C123.557 100.283 123.372 100.043 123.25 99.7696C123.129 99.4966 123.074 99.1984 123.09 98.8999C123.324 97.4604 123.765 96.0625 124.4 94.7499L125 93.2899H133.74L135.62 97.5199ZM102 102.34V83.2799C101.962 82.5753 102.039 81.8692 102.23 81.1899C102.439 80.7136 102.822 80.3347 103.3 80.1299C104.021 79.7895 104.804 79.599 105.6 79.5699V78.7799H97.2302V79.5699C98.0213 79.5507 98.8097 79.6692 99.5602 79.9199C100.098 80.0796 100.555 80.4369 100.84 80.9199C101.109 81.5962 101.221 82.3242 101.17 83.0499V96.7999L87.5302 78.7999H80.7302V79.5799C81.5327 79.5243 82.3387 79.6123 83.1102 79.8399C83.3181 79.9633 83.496 80.1314 83.6309 80.3321C83.7658 80.5327 83.8544 80.7608 83.8902 80.9999C84.1062 82.1702 84.1901 83.361 84.1402 84.5499V96.7299C84.1841 97.6157 84.1371 98.5037 84.0002 99.3799C83.8099 99.8427 83.4531 100.217 83.0002 100.43C82.2144 100.802 81.3595 101.007 80.4902 101.03V101.81H89.0002V101C88.0536 101.056 87.1081 100.874 86.2502 100.47C85.7521 100.24 85.3566 99.834 85.1402 99.3299C84.9683 98.4644 84.9011 97.5814 84.9402 96.6999V80.6999L101.23 102.28L102 102.34ZM45.2102 81.9999C45.9781 81.0645 46.9565 80.3241 48.0653 79.8392C49.1742 79.3543 50.3821 79.1386 51.5902 79.2099C52.8086 79.1462 54.0248 79.3722 55.139 79.8693C56.2533 80.3664 57.2338 81.1206 58.0002 82.0699C59.4802 83.9799 60.2302 86.7199 60.2302 90.2999C60.2302 93.8799 59.4802 96.7499 57.9702 98.5999C57.2346 99.5134 56.2951 100.242 55.227 100.726C54.1589 101.211 52.9921 101.438 51.8202 101.39C48.8202 101.39 46.6502 100.46 45.1802 98.5999C43.7102 96.7399 43.0002 93.9999 43.0002 90.2699C43.0002 86.5399 43.7402 83.8599 45.2202 81.9999H45.2102ZM42.6202 98.9199C45.0673 101.165 48.3014 102.355 51.6202 102.23C53.2803 102.305 54.9389 102.051 56.5006 101.483C58.0623 100.915 59.4963 100.044 60.7202 98.9199C61.8709 97.7995 62.7729 96.4493 63.3673 94.9573C63.9617 93.4652 64.2353 91.8647 64.1702 90.2599C64.2517 88.6313 63.9701 87.0049 63.3457 85.4985C62.7214 83.9921 61.7699 82.6434 60.5602 81.5499C58.0694 79.3904 54.855 78.2511 51.5602 78.3599C48.2893 78.2564 45.1034 79.4126 42.6602 81.5899C41.479 82.6696 40.5477 83.994 39.9311 85.4707C39.3145 86.9474 39.0275 88.5409 39.0902 90.1399C39.0202 91.7694 39.2978 93.3951 39.9048 94.909C40.5117 96.4228 41.4339 97.7901 42.6102 98.9199H42.6202ZM12.3402 79.5699H12.8802C13.6496 79.5065 14.4237 79.6088 15.1502 79.8699C15.3347 79.994 15.4901 80.1566 15.6057 80.3465C15.7214 80.5364 15.7946 80.7491 15.8202 80.9699C15.9702 82.1436 16.0303 83.3271 16.0002 84.5099V99.5099C16.0419 101.354 15.9483 103.199 15.7202 105.03C15.547 106.175 14.9815 107.225 14.1202 108C13.2346 108.818 12.0654 109.259 10.8602 109.23C10.3104 109.248 9.76346 109.142 9.26021 108.92C9.07566 108.864 8.91302 108.752 8.79478 108.6C8.67654 108.448 8.60854 108.263 8.60021 108.07C8.62827 107.857 8.69253 107.651 8.79021 107.46C8.92069 107.184 8.99222 106.885 9.00021 106.58C8.99957 106.126 8.81987 105.692 8.50021 105.37C8.16466 105.048 7.71525 104.872 7.25021 104.88C7.0183 104.875 6.78818 104.921 6.57579 105.015C6.36341 105.108 6.17383 105.246 6.02021 105.42C5.68256 105.783 5.50273 106.265 5.52021 106.76C5.54963 107.221 5.69407 107.668 5.94035 108.059C6.18663 108.45 6.52692 108.774 6.93021 109C8.1355 109.721 9.52737 110.069 10.9302 110C12.3372 110.028 13.7344 109.759 15.0302 109.21C16.0928 108.749 17.0245 108.032 17.7418 107.123C18.4591 106.214 18.9396 105.141 19.1402 104C19.3218 102.524 19.3986 101.037 19.3702 99.5499V84.5499C19.3311 83.334 19.3879 82.1169 19.5402 80.9099C19.5765 80.7021 19.658 80.5049 19.779 80.3321C19.9 80.1593 20.0574 80.0152 20.2402 79.9099C20.9534 79.6663 21.7089 79.571 22.4602 79.6299H23.0002V78.8499H12.3402V79.5699Z" fill="#253E86"/>
<path d="M304.67 19.6998C304.122 20.5337 303.349 21.1958 302.44 21.6098C301.479 21.9565 300.461 22.1161 299.44 22.0798H297.74C296.2 22.0798 295.26 21.8398 294.91 21.3598C294.56 20.8798 294.38 19.2698 294.38 16.5498V11.0898H296.91C297.616 11.061 298.322 11.1283 299.01 11.2898C299.218 11.3572 299.409 11.4678 299.571 11.6143C299.733 11.7608 299.862 11.9399 299.95 12.1398C300.23 12.9659 300.343 13.8397 300.28 14.7098H301.08V6.82977H300.28C300.32 7.60252 300.249 8.37702 300.07 9.12977C299.991 9.32905 299.871 9.50947 299.718 9.65935C299.564 9.80923 299.381 9.92521 299.18 9.99977C298.421 10.2382 297.625 10.3364 296.83 10.2898H294.4V0.619766H297.59C298.763 0.581143 299.936 0.668307 301.09 0.879766C301.855 1.07322 302.53 1.52546 303 2.15977C303.674 3.19633 304.126 4.36052 304.33 5.57977H305.13L304.56 -0.170234H288.08V0.619766C288.823 0.553011 289.571 0.666207 290.26 0.949766C290.444 1.08735 290.597 1.26138 290.711 1.46097C290.825 1.66056 290.896 1.88142 290.92 2.10977C291.042 3.26218 291.089 4.42129 291.06 5.57977V16.8698C291.097 18.068 291.054 19.2673 290.93 20.4598C290.855 20.9079 290.629 21.317 290.29 21.6198C289.621 22.013 288.841 22.1747 288.07 22.0798H287.6V22.8698H306.6L307.1 15.6998H306.28C305.988 17.1286 305.42 18.4871 304.61 19.6998H304.67ZM272.48 16.0798C272.154 17.5012 271.582 18.8549 270.79 20.0798C270.314 20.8077 269.637 21.3812 268.84 21.7298C267.817 22.0218 266.753 22.1467 265.69 22.0998H264C263.122 22.1681 262.239 22.0488 261.41 21.7498C261.22 21.6484 261.055 21.5061 260.927 21.3332C260.799 21.1602 260.712 20.9609 260.67 20.7498C260.548 19.7111 260.502 18.6651 260.53 17.6198V5.61977C260.487 4.40352 260.547 3.1858 260.71 1.97977C260.75 1.77333 260.833 1.57762 260.954 1.40534C261.074 1.23306 261.23 1.08807 261.41 0.979766C262.127 0.737234 262.886 0.641997 263.64 0.699766H264.64V-0.170234H253.64V0.619766H254.15C254.92 0.556348 255.694 0.658648 256.42 0.919766C256.595 1.04722 256.743 1.20845 256.854 1.39395C256.966 1.57945 257.039 1.78545 257.07 1.99977C257.214 3.17731 257.267 4.36409 257.23 5.54977V16.8598C257.27 18.0887 257.216 19.3189 257.07 20.5398C257.034 20.7726 256.95 20.9957 256.825 21.1951C256.699 21.3946 256.534 21.5663 256.34 21.6998C255.717 21.9968 255.028 22.1277 254.34 22.0798H253.66V22.8598H273.22L273.39 16.0798H272.58H272.48ZM238.6 16.0798C238.276 17.5005 237.708 18.854 236.92 20.0798C236.449 20.7974 235.783 21.3661 235 21.7198C233.977 22.0118 232.913 22.1367 231.85 22.0898H230.09C229.215 22.1586 228.335 22.0392 227.51 21.7398C227.32 21.6384 227.155 21.4961 227.027 21.3232C226.899 21.1502 226.812 20.9509 226.77 20.7398C226.643 19.7016 226.597 18.6551 226.63 17.6098V5.60977C226.587 4.39352 226.647 3.1758 226.81 1.96977C226.85 1.76202 226.934 1.56526 227.057 1.39276C227.179 1.22026 227.337 1.07602 227.52 0.969766C228.233 0.726131 228.989 0.630848 229.74 0.689766H230.74V-0.170234H219.74V0.619766H220.25C221.02 0.556348 221.794 0.658648 222.52 0.919766C222.701 1.04359 222.853 1.20352 222.969 1.38943C223.084 1.57534 223.159 1.78317 223.19 1.99977C223.334 3.17731 223.387 4.36409 223.35 5.54977V16.8598C223.387 18.0854 223.333 19.312 223.19 20.5298C223.154 20.7626 223.07 20.9857 222.945 21.1851C222.819 21.3846 222.654 21.5563 222.46 21.6898C221.821 21.992 221.114 22.1197 220.41 22.0598H219.74V22.8598H239.3L239.47 16.0798H238.65H238.6ZM202.31 19.6998C201.762 20.5337 200.989 21.1958 200.08 21.6098C199.119 21.9565 198.101 22.1161 197.08 22.0798H195.37C193.83 22.0798 192.88 21.8398 192.53 21.3598C192.18 20.8798 192.01 19.2698 192.01 16.5498V11.0898H194.53C195.236 11.061 195.942 11.1283 196.63 11.2898C196.839 11.3555 197.031 11.4654 197.193 11.6121C197.355 11.7588 197.484 11.9388 197.57 12.1398C197.85 12.9659 197.963 13.8397 197.9 14.7098H198.7V6.82977H197.9C197.94 7.60252 197.869 8.37702 197.69 9.12977C197.611 9.32905 197.491 9.50947 197.338 9.65935C197.184 9.80923 197.001 9.92521 196.8 9.99977C196.041 10.2382 195.245 10.3364 194.45 10.2898H192V0.619766H195.19C196.363 0.581143 197.536 0.668307 198.69 0.879766C199.444 1.07946 200.108 1.53112 200.57 2.15977C201.244 3.19633 201.696 4.36052 201.9 5.57977H202.7L202.16 -0.170234H185.74V0.619766C186.486 0.553355 187.237 0.66651 187.93 0.949766C188.114 1.08613 188.268 1.26004 188.38 1.46C188.492 1.65997 188.56 1.88143 188.58 2.10977C188.71 3.26159 188.76 4.42102 188.73 5.57977V16.8698C188.764 18.0682 188.717 19.2676 188.59 20.4598C188.517 20.9066 188.295 21.3155 187.96 21.6198C187.29 22.0102 186.51 22.1717 185.74 22.0798H185.26V22.8698H204.31L204.81 15.6998H204C203.707 17.1284 203.14 18.4867 202.33 19.6998H202.31ZM159.15 10.9398C161.73 10.9398 163.533 11.3898 164.56 12.2898C165.105 12.8369 165.523 13.496 165.788 14.2213C166.052 14.9465 166.155 15.7206 166.09 16.4898C166.208 18.0082 165.719 19.5115 164.73 20.6698C164.183 21.1684 163.54 21.5492 162.84 21.7883C162.14 22.0274 161.398 22.1198 160.66 22.0598C159.945 22.1399 159.223 21.978 158.61 21.5998C158.238 21.2476 158.01 20.7702 157.97 20.2598C157.89 19.6798 157.85 18.2598 157.85 16.0998V10.9998C158.31 10.9998 158.74 10.9998 159.15 10.9998V10.9398ZM157.85 0.489766C158.32 0.489766 158.77 0.489766 159.21 0.489766C160.437 0.41288 161.667 0.593409 162.82 1.01977C163.488 1.3478 164.036 1.87557 164.39 2.52977C164.791 3.40287 164.973 4.36051 164.92 5.31977C164.976 5.99355 164.885 6.6714 164.654 7.30667C164.422 7.94195 164.056 8.51956 163.58 8.99977C162.69 9.77977 161.02 10.1598 158.58 10.1598C158.39 10.1598 158.15 10.1598 157.87 10.1598L157.85 0.489766ZM166.9 8.63977C167.433 8.19912 167.856 7.64124 168.137 7.00976C168.418 6.37829 168.549 5.69035 168.52 4.99977C168.52 1.3731 165.373 -0.440234 159.08 -0.440234L154.76 -0.300234L151 -0.170234V0.619766H151.44C152.21 0.556348 152.984 0.658648 153.71 0.919766C153.887 1.04586 154.037 1.20657 154.151 1.39219C154.264 1.57781 154.339 1.7845 154.37 1.99977C154.508 3.19784 154.562 4.40417 154.53 5.60977V16.8598C154.562 18.0853 154.508 19.3116 154.37 20.5298C154.34 20.7633 154.26 20.9876 154.136 21.1877C154.012 21.3878 153.846 21.559 153.65 21.6898C153.026 21.9834 152.338 22.1108 151.65 22.0598H150.76V22.8598H159.76C161.57 22.9017 163.378 22.7373 165.15 22.3698C166.449 22.0756 167.611 21.3537 168.45 20.3198C169.311 19.2697 169.768 17.947 169.74 16.5898C169.755 15.7969 169.592 15.0109 169.263 14.2893C168.934 13.5677 168.448 12.9289 167.84 12.4198C166.154 11.1586 164.106 10.4748 162 10.4698C163.764 10.3194 165.452 9.68626 166.88 8.63977H166.9ZM120.06 13.6398L124.06 3.81977L128.14 13.6398H120.06ZM130.24 18.6398C130.589 19.349 130.851 20.0977 131.02 20.8698C131.049 21.0772 131.007 21.2883 130.902 21.4695C130.797 21.6506 130.634 21.7915 130.44 21.8698C129.71 22.0821 128.949 22.1666 128.19 22.1198V22.8898H137.19V22.1098C136.545 22.0806 135.919 21.8766 135.38 21.5198C134.962 21.1746 134.636 20.7315 134.43 20.2298L133.38 17.8198L125.75 -0.490234H125.09L118.41 15.5098C117.92 16.6498 117.65 17.3098 117.59 17.5098C117.174 18.7745 116.567 19.9683 115.79 21.0498C115.185 21.6665 114.381 22.0491 113.52 22.1298V22.9098H120.36V22.1298C119.713 22.1599 119.075 21.9696 118.55 21.5898C118.314 21.4054 118.126 21.1658 118.004 20.8921C117.882 20.6183 117.829 20.3188 117.85 20.0198C118.08 18.5827 118.522 17.1876 119.16 15.8798L119.76 14.4198H128.5L130.24 18.6398ZM97.6502 23.3898V4.38977C97.616 3.68203 97.6936 2.97332 97.8801 2.28977C98.1003 1.79184 98.5003 1.3954 99.0002 1.17977C99.7251 0.851035 100.505 0.661089 101.3 0.619766V-0.170234H92.9002V0.619766C93.6933 0.605369 94.4826 0.734095 95.2302 0.999766C95.7683 1.15853 96.2259 1.51604 96.5102 1.99977C96.7644 2.68297 96.87 3.41251 96.8202 4.13977V17.8498L83.1902 -0.170234H76.3902V0.619766C77.1953 0.562871 78.0042 0.647483 78.7802 0.869766C78.982 0.99305 79.1557 1.15733 79.2901 1.35198C79.4244 1.54663 79.5164 1.76732 79.5602 1.99977C79.7709 3.17066 79.8547 4.36088 79.8102 5.54977V17.7798C79.8441 18.6662 79.7906 19.5538 79.6502 20.4298C79.4497 20.8738 79.0941 21.2293 78.6502 21.4298C77.865 21.8054 77.0101 22.0131 76.1402 22.0398V22.8198H84.7001V22.0398C83.7736 22.1 82.8465 21.9317 82.0002 21.5498C81.4967 21.3225 81.0995 20.9109 80.8902 20.3998C80.7173 19.5344 80.6501 18.6513 80.6902 17.7698V1.79977L96.9302 23.3898H97.6502ZM58.7002 23.3898V4.38977C58.6711 3.68219 58.7486 2.97427 58.9302 2.28977C59.1381 1.80074 59.5191 1.40554 60.0002 1.17977C60.7251 0.851035 61.5052 0.661089 62.3002 0.619766V-0.170234H54.0002V0.619766C54.7766 0.611326 55.5484 0.739966 56.2802 0.999766C56.8183 1.15853 57.2759 1.51604 57.5602 1.99977C57.8144 2.68297 57.92 3.41251 57.8702 4.13977V17.8498L44.2402 -0.170234H37.4402V0.619766C38.2453 0.562871 39.0542 0.647483 39.8302 0.869766C40.0333 0.991578 40.2079 1.15544 40.3425 1.35034C40.477 1.54524 40.5683 1.76667 40.6102 1.99977C40.8262 3.17 40.91 4.3608 40.8602 5.54977V17.7798C40.8941 18.6662 40.8406 19.5538 40.7002 20.4298C40.4997 20.8738 40.1442 21.2293 39.7002 21.4298C38.915 21.8054 38.0601 22.0131 37.1902 22.0398V22.8198H45.7802V22.0398C44.827 22.1134 43.8707 21.9448 43.0002 21.5498C42.4967 21.3225 42.0995 20.9109 41.8902 20.3998C41.7173 19.5344 41.6501 18.6513 41.6902 17.7698V1.79977L58.0002 23.3898H58.7002ZM6.70016 13.6098L10.7602 3.78977L14.8402 13.6098H6.70016ZM16.8802 18.6098C17.229 19.319 17.4909 20.0677 17.6602 20.8398C17.6887 21.0472 17.6471 21.2583 17.5421 21.4395C17.437 21.6206 17.2744 21.7615 17.0802 21.8398C16.3503 22.0529 15.589 22.1375 14.8302 22.0898V22.8598H23.8802V22.0798C23.2345 22.0506 22.609 21.8466 22.0702 21.4898C21.6309 21.1534 21.2864 20.709 21.0702 20.1998L20.0102 17.7898L12.4002 -0.490234H11.7502L5.05016 15.5098C4.56016 16.6498 4.29016 17.3098 4.24016 17.5098C3.81086 18.7535 3.20463 19.9289 2.44016 20.9998C1.82965 21.6151 1.02298 21.9972 0.160156 22.0798V22.8598H7.00016V22.0798C6.35791 22.1082 5.72451 21.9217 5.20016 21.5498C4.96681 21.3667 4.78062 21.1305 4.65711 20.8609C4.5336 20.5913 4.47636 20.296 4.49016 19.9998C4.72157 18.5534 5.16289 17.1486 5.80016 15.8298L6.40016 14.3698H15.1502L16.8802 18.6098Z" fill="#253E86"/>
<path d="M153.09 52.0598C153.76 53.0598 154.5 54.1298 155.3 55.3398C154.961 55.7971 154.526 56.174 154.024 56.4436C153.523 56.7133 152.968 56.8691 152.4 56.8998C151.913 56.8913 151.434 56.7758 150.997 56.5615C150.56 56.3472 150.175 56.0394 149.87 55.6598C149.163 54.9537 148.761 53.9988 148.75 52.9998C148.77 52.3246 148.997 51.6719 149.4 51.1298C149.877 50.4408 150.498 49.8641 151.22 49.4398C151.79 50.1798 152.42 51.0498 153.1 52.0298L153.09 52.0598ZM150.98 45.0298C150.973 44.5381 151.148 44.061 151.47 43.6898C151.635 43.5085 151.838 43.3654 152.064 43.2705C152.291 43.1755 152.535 43.1309 152.78 43.1398C153.038 43.1393 153.293 43.1903 153.53 43.2898C153.753 43.3842 153.951 43.5278 154.11 43.7098C154.283 43.8984 154.409 44.1243 154.48 44.3698C154.572 44.637 154.619 44.9173 154.62 45.1998C154.62 46.1998 153.86 47.1998 152.35 48.0598C151.619 47.2092 151.144 46.1691 150.98 45.0598V45.0298ZM156.09 48.8898C157.27 49.0298 157.86 49.5298 157.86 50.3998C157.824 50.9217 157.695 51.4329 157.48 51.9098C157.229 52.5736 156.893 53.2022 156.48 53.7798L154.64 51.1898C154.01 50.3198 153.35 49.4198 152.64 48.5098C154.82 47.4098 155.9 46.2898 155.9 45.1298C155.902 44.7678 155.811 44.4115 155.636 44.0946C155.461 43.7778 155.207 43.511 154.9 43.3198C154.255 42.8619 153.481 42.6203 152.69 42.6298C152.268 42.6149 151.848 42.6891 151.457 42.8476C151.066 43.0061 150.712 43.2454 150.42 43.5498C150.136 43.8194 149.909 44.1433 149.753 44.5023C149.596 44.8614 149.514 45.2482 149.51 45.6398C149.6 46.871 150.068 48.0443 150.85 48.9998C149.74 49.6708 148.729 50.4957 147.85 51.4498C147.33 52.1324 147.058 52.972 147.08 53.8298C147.058 54.4175 147.182 55.0014 147.44 55.5298C147.919 56.5398 148.767 57.3274 149.81 57.7298C150.316 57.9308 150.856 58.0293 151.4 58.0198C152.219 57.9762 153.019 57.7551 153.744 57.3718C154.469 56.9885 155.103 56.4521 155.6 55.7998C156.025 56.456 156.602 56.9992 157.284 57.3825C157.965 57.7657 158.729 57.9776 159.51 57.9998C160.151 58.0093 160.779 57.813 161.3 57.4398C161.801 57.0701 162.155 56.5353 162.3 55.9298H161.78C161.627 56.2351 161.391 56.491 161.099 56.668C160.807 56.8449 160.471 56.9357 160.13 56.9298C159.605 56.9279 159.093 56.7675 158.66 56.4698C157.912 55.8437 157.271 55.1007 156.76 54.2698C157.221 53.6129 157.597 52.9007 157.88 52.1498C158.184 51.2661 158.664 50.4531 159.29 49.7598C159.747 49.3449 160.295 49.0435 160.89 48.8798V48.3998H156.06V48.9198L156.09 48.8898Z" fill="#253E86"/>
</g>
<defs>
<clipPath id="clip0">
<rect width="307" height="110.5" fill="white"/>
</clipPath>
</defs>
</svg>
