<svg width="40" height="40" viewBox="0 0 40 40" fill="none" xmlns="http://www.w3.org/2000/svg">
<path d="M20 3.47022C29.1147 3.47022 36.5298 10.8871 36.5298 20.0013C36.5298 29.1156 29.1147 36.5298 20 36.5298C10.8853 36.5298 3.47022 29.116 3.47022 20.0013C3.47022 10.8867 10.8853 3.47022 20 3.47022ZM20 0C8.95378 0 0 8.95467 0 20.0013C0 31.0453 8.95378 40 20 40C31.0453 40 40 31.0453 40 20.0013C40 8.95467 31.0453 0 20 0ZM16.0516 15.8009C16.0516 17.2698 14.8609 18.4604 13.392 18.4604C11.9231 18.4604 10.7329 17.2698 10.7329 15.8009C10.7329 14.332 11.9236 13.1413 13.392 13.1413C14.8613 13.1413 16.0516 14.332 16.0516 15.8009ZM26.608 13.1662C25.1387 13.1662 23.9484 14.3569 23.9484 15.8258C23.9484 17.292 25.1391 18.4858 26.608 18.4858C28.0769 18.4858 29.2671 17.292 29.2671 15.8258C29.2676 14.3569 28.0769 13.1662 26.608 13.1662ZM14.0013 30.8387C15.6329 29.3036 17.7636 28.4573 20 28.4573C22.2378 28.4573 24.3698 29.3036 26.0013 30.8387C26.6973 31.4947 27.7956 31.4591 28.4547 30.7644C29.1093 30.0644 29.0773 28.9671 28.3773 28.3111C26.1009 26.1671 23.124 24.9876 20 24.9876C16.8773 24.9876 13.9018 26.1671 11.6227 28.3116C10.9253 28.9676 10.892 30.0644 11.548 30.7649C11.8902 31.1258 12.3516 31.3107 12.8133 31.3107C13.2391 31.3098 13.6676 31.1529 14.0013 30.8387Z" fill="current"/>
</svg>
