<svg width="30" height="30" viewBox="0 0 30 30" fill="none" xmlns="http://www.w3.org/2000/svg">
<path fill-rule="evenodd" clip-rule="evenodd" d="M17.2857 1.5C17.2857 0.671573 16.6141 0 15.7857 0C14.9573 0 14.2857 0.671573 14.2857 1.5V14L1.5 14C0.671574 14 0 14.6716 0 15.5C0 16.3284 0.671573 17 1.5 17H14.2857V28.5C14.2857 29.3284 14.9573 30 15.7857 30C16.6141 30 17.2857 29.3284 17.2857 28.5V17H28.5C29.3284 17 30 16.3284 30 15.5C30 14.6716 29.3284 14 28.5 14L17.2857 14V1.5Z" fill="black"/>
</svg>
