<svg width="81" height="81" viewBox="0 0 81 81" fill="none" xmlns="http://www.w3.org/2000/svg"><path d="M3.668 59.186h32.207v12.513h-6.172a5.429 5.429 0 00-5.422 5.423v1.88a1 1 0 001 1h29.688a1 1 0 001-1v-1.88a5.43 5.43 0 00-5.422-5.423h-6.172V59.186h32.207a3.547 3.547 0 003.543-3.543v-2.024a3.547 3.547 0 00-3.543-3.543h-3.156V38.762c2.352-1.454 3.928-4.048 3.928-7.011v-8.259a1 1 0 00-1-1H66.335v-9.45a6.65 6.65 0 003.066-5.595V1.001a1 1 0 00-1-1H11.849a1 1 0 00-1 1v6.446a.9.9 0 00.013.157 6.653 6.653 0 003.053 5.433v9.454H3.896a1 1 0 00-1 1v8.259a.94.94 0 00.016.177c.061 2.884 1.614 5.401 3.912 6.827v11.321H3.668a3.547 3.547 0 00-3.543 3.543v2.024a3.547 3.547 0 003.543 3.544zm46.879 14.512a3.426 3.426 0 013.422 3.423v.88H26.281v-.88a3.426 3.426 0 013.422-3.423h20.844zm-12.672-2V59.186h4.5v12.513h-4.5v-.001zM12.859 7.447c0-.05-.004-.098-.011-.146V2h54.553v5.446a4.66 4.66 0 01-4.654 4.654 4.66 4.66 0 01-4.654-4.654 1 1 0 10-2 0 4.66 4.66 0 01-4.654 4.654 4.66 4.66 0 01-4.654-4.654 1 1 0 10-2 0 4.66 4.66 0 01-4.654 4.654 4.66 4.66 0 01-4.654-4.654 1 1 0 10-2 0 4.66 4.66 0 01-4.654 4.654 4.66 4.66 0 01-4.654-4.654 1 1 0 10-2 0 4.66 4.66 0 01-4.654 4.654 4.66 4.66 0 01-4.656-4.653zm51.476 6.455v8.59h-48.42v-8.593a6.64 6.64 0 001.599.202 6.655 6.655 0 005.654-3.149 6.654 6.654 0 005.654 3.149 6.656 6.656 0 005.654-3.149 6.654 6.654 0 005.654 3.149 6.656 6.656 0 005.654-3.149 6.654 6.654 0 005.654 3.149 6.656 6.656 0 005.654-3.149 6.654 6.654 0 005.654 3.149 6.556 6.556 0 001.589-.199zM4.91 31.751c0-.057-.005-.112-.014-.166v-7.093h70.458v7.259a6.251 6.251 0 01-6.245 6.244 6.251 6.251 0 01-6.244-6.244 1 1 0 10-2 0 6.251 6.251 0 01-6.245 6.244 6.251 6.251 0 01-6.244-6.244 1 1 0 10-2 0 6.251 6.251 0 01-6.245 6.244 6.251 6.251 0 01-6.244-6.244 1 1 0 10-2 0 6.251 6.251 0 01-6.245 6.244 6.251 6.251 0 01-6.244-6.244 1 1 0 10-2 0 6.251 6.251 0 01-6.245 6.244 6.25 6.25 0 01-6.243-6.244zm66.516 7.907v10.417H8.824V39.656a8.23 8.23 0 002.33.339 8.252 8.252 0 007.245-4.312 8.253 8.253 0 007.244 4.312 8.252 8.252 0 007.245-4.312 8.253 8.253 0 007.244 4.312 8.252 8.252 0 007.245-4.312 8.253 8.253 0 007.244 4.312 8.252 8.252 0 007.245-4.312 8.253 8.253 0 007.244 4.312c.804 0 1.58-.121 2.316-.337zM2.125 53.618c0-.851.692-1.543 1.543-1.543h72.914c.851 0 1.543.692 1.543 1.543v2.024c0 .851-.692 1.543-1.543 1.543H3.668a1.545 1.545 0 01-1.543-1.543v-2.024z" fill="#050514"/></svg>