<svg width="85" height="82" viewBox="0 0 85 82" fill="none" xmlns="http://www.w3.org/2000/svg"><path d="M66.996 19.274c1.155-2.311.2-4.437-1.174-5.435a3.794 3.794 0 00-4.057-.258 3.788 3.788 0 00-3.73-1.608c-1.68.266-3.493 1.729-3.511 4.312-.027 4.07 4.28 7.167 4.463 7.297a1.003 1.003 0 00.724.173c.222-.031 5.466-.84 7.285-4.481zm-1.79-.894c-1.11 2.222-4.274 3.082-5.392 3.321-1.158-.927-3.306-3.119-3.29-5.401.01-1.426.923-2.208 1.823-2.351a1.9 1.9 0 01.315-.025c.82 0 1.478.535 1.792 1.482a1.001 1.001 0 001.652.396c.8-.79 1.752-.917 2.54-.344.739.536 1.199 1.647.56 2.922zM8.222 6.992a3.792 3.792 0 00-3.248 2.444 3.792 3.792 0 00-3.88 1.208c-1.1 1.294-1.526 3.585.142 5.558 2.003 2.369 5.55 2.67 7.223 2.67.521 0 .861-.029.915-.034a1 1 0 00.661-.34c.147-.169 3.603-4.195 2.614-8.143-.627-2.506-2.744-3.496-4.427-3.363zm.558 9.874c-1.15.023-4.418-.063-6.018-1.955-.92-1.089-.736-2.276-.146-2.971.36-.424.824-.639 1.334-.639.387 0 .801.124 1.216.373a.991.991 0 00.971.032.995.995 0 00.54-.807c.094-1.12.731-1.835 1.706-1.914.907-.084 1.98.471 2.325 1.854.603 2.406-1.232 5.113-1.928 6.027zM13.65 70.888a3.792 3.792 0 00-2.978-2.765c-1.661-.308-3.868.458-4.752 2.888-1.388 3.826 1.633 8.186 1.763 8.369a.994.994 0 00.623.405c.093.019 1.069.206 2.389.206 1.813 0 4.277-.354 5.977-1.987 1.861-1.79 1.675-4.112.713-5.514a3.797 3.797 0 00-3.735-1.602zm1.634 5.674c-1.787 1.717-5.049 1.47-6.186 1.323-.597-.98-2.144-3.862-1.298-6.192.487-1.34 1.609-1.771 2.506-1.604.96.18 1.52.957 1.498 2.079a.999.999 0 001.423.926c1.018-.479 1.955-.278 2.51.527.516.753.575 1.953-.453 2.941zM18.395 28.207a.996.996 0 00.555.898l3.105 1.548.485 3.437a1.002 1.002 0 00.99.861.997.997 0 00.712-.299l2.433-2.475 3.418.601a1 1 0 001.059-1.448l-1.603-3.078 1.628-3.065a1 1 0 00-1.049-1.455l-3.422.572-2.412-2.494a1 1 0 00-1.709.548l-.512 3.432-3.117 1.523a.996.996 0 00-.56.894zm5.03-.852c.296-.145.502-.425.55-.751l.291-1.948 1.37 1.416c.229.236.56.343.884.291l1.942-.325-.924 1.74c-.154.29-.157.639-.005.931l.91 1.747-1.94-.341a1.004 1.004 0 00-.886.284l-1.38 1.405-.275-1.951a1.001 1.001 0 00-.544-.755l-1.764-.879 1.77-.864zM58.231 51.046a1.002 1.002 0 00.966.426c.377-.054.69-.316.81-.678l1.084-3.297 3.33-.977a1 1 0 00.308-1.767l-2.8-2.05.1-3.468a1 1 0 00-1.585-.84l-2.814 2.03-3.269-1.167a.997.997 0 00-1.03.223 1.002 1.002 0 00-.258 1.024l1.062 3.305-2.12 2.746a1.003 1.003 0 00.79 1.612l3.47.012 1.956 2.866zm-2.03-7.346l-.604-1.876 1.855.662a1 1 0 00.921-.131l1.598-1.152-.058 1.969c-.009.329.144.642.41.836l1.59 1.163-1.89.555a1.002 1.002 0 00-.67.647l-.615 1.871-1.11-1.626a1 1 0 00-.822-.436l-1.97-.007 1.203-1.559a.995.995 0 00.161-.916zM79.016 8.216a4.027 4.027 0 00-4.022-4.022 4.027 4.027 0 00-4.021 4.022 4.026 4.026 0 004.02 4.021 4.026 4.026 0 004.023-4.021zm-6.044 0c0-1.115.907-2.022 2.02-2.022 1.116 0 2.023.907 2.023 2.022a2.024 2.024 0 01-2.022 2.021 2.024 2.024 0 01-2.021-2.021zM76.207 73.022a4.026 4.026 0 00-4.021 4.022 4.026 4.026 0 004.02 4.021 4.027 4.027 0 004.022-4.021 4.027 4.027 0 00-4.021-4.022zm0 6.044a2.024 2.024 0 01-2.021-2.021c0-1.115.907-2.022 2.02-2.022 1.116 0 2.022.907 2.022 2.022a2.024 2.024 0 01-2.021 2.021zM4.146 61.432a4.026 4.026 0 004.022-4.021 4.027 4.027 0 00-4.022-4.021 4.026 4.026 0 00-4.021 4.021 4.026 4.026 0 004.021 4.021zm0-6.043c1.115 0 2.022.907 2.022 2.021a2.024 2.024 0 01-2.022 2.021 2.024 2.024 0 01-2.021-2.021c0-1.114.907-2.021 2.021-2.021zM31.25 60.322a4.025 4.025 0 004.02-4.021 4.027 4.027 0 00-4.02-4.022 4.027 4.027 0 00-4.021 4.022 4.025 4.025 0 004.02 4.021zm0-6.044c1.114 0 2.02.907 2.02 2.022a2.024 2.024 0 01-2.02 2.021 2.024 2.024 0 01-2.021-2.021c0-1.114.907-2.022 2.02-2.022zM41.503 59.73c-2.186 1.196-4.663 2.553-4.663 5.414 0 2.861 2.478 4.218 4.663 5.414 2.255 1.234 3.624 2.097 3.624 3.66a1 1 0 102 0c0-2.861-2.478-4.218-4.663-5.414-2.255-1.234-3.624-2.097-3.624-3.66 0-1.563 1.369-2.426 3.623-3.66 2.187-1.196 4.664-2.554 4.664-5.415 0-2.859-2.478-4.216-4.663-5.411-2.255-1.234-3.624-2.096-3.624-3.657 0-1.562 1.369-2.424 3.624-3.658 2.186-1.196 4.663-2.552 4.663-5.412 0-2.859-2.478-4.216-4.663-5.411-2.255-1.234-3.624-2.096-3.624-3.657s1.369-2.423 3.624-3.656c2.186-1.195 4.663-2.551 4.663-5.409 0-2.859-2.478-4.215-4.664-5.41-2.254-1.233-3.623-2.095-3.623-3.655 0-1.562 1.369-2.423 3.623-3.656 2.187-1.195 4.664-2.551 4.664-5.41a1 1 0 10-2 0c0 1.562-1.37 2.423-3.623 3.656-2.187 1.195-4.664 2.551-4.664 5.41 0 2.858 2.478 4.214 4.663 5.409 2.255 1.233 3.624 2.095 3.624 3.656s-1.37 2.422-3.623 3.655c-2.187 1.195-4.664 2.551-4.664 5.41s2.478 4.216 4.663 5.411c2.255 1.233 3.624 2.096 3.624 3.657 0 1.562-1.37 2.424-3.624 3.658-2.186 1.196-4.663 2.552-4.663 5.412 0 2.859 2.478 4.216 4.663 5.411 2.255 1.233 3.624 2.096 3.624 3.657 0 1.564-1.37 2.427-3.624 3.661zM16.773 41.188c-1.151-2.259-3.878-1.802-6.282-1.396-2.226.373-3.717.552-4.168-.332-.545-1.068.688-2.827 1.88-4.527 1.532-2.185 3.116-4.443 2.024-6.584a1 1 0 10-1.782.908c.545 1.068-.688 2.827-1.88 4.527-1.532 2.185-3.116 4.443-2.024 6.584 1.15 2.258 3.877 1.801 6.28 1.396 2.227-.372 3.718-.553 4.17.332.545 1.068-.688 2.827-1.88 4.527-1.532 2.185-3.116 4.444-2.024 6.585 1.15 2.259 3.879 1.801 6.28 1.396 2.227-.373 3.718-.554 4.17.332.545 1.068-.687 2.827-1.88 4.527-1.532 2.185-3.117 4.443-2.025 6.584 1.15 2.26 3.88 1.801 6.282 1.397 2.225-.376 3.717-.554 4.17.333.546 1.071-.687 2.831-1.88 4.532-1.53 2.186-3.113 4.445-2.02 6.588 1.15 2.261 3.879 1.802 6.283 1.399 2.229-.374 3.719-.55 4.172.336a.999.999 0 101.782-.908c-1.152-2.262-3.881-1.804-6.283-1.399-2.228.374-3.72.551-4.172-.336-.546-1.071.687-2.831 1.879-4.532 1.53-2.186 3.114-4.445 2.02-6.588-1.15-2.26-3.878-1.802-6.281-1.397-2.227.373-3.718.554-4.17-.333-.544-1.068.688-2.827 1.88-4.527 1.533-2.185 3.118-4.443 2.026-6.584-1.151-2.259-3.878-1.801-6.282-1.396-2.225.373-3.717.553-4.17-.332-.544-1.069.689-2.828 1.882-4.528 1.53-2.184 3.115-4.444 2.023-6.584zM80.11 29.258a1 1 0 10-1.782-.908c-1.091 2.141.493 4.399 2.024 6.584 1.192 1.7 2.426 3.458 1.88 4.527-.451.885-1.943.705-4.168.332-2.405-.406-5.132-.863-6.281 1.396-1.092 2.14.492 4.399 2.023 6.584 1.192 1.7 2.426 3.459 1.88 4.528-.452.884-1.945.704-4.168.332-2.405-.405-5.131-.863-6.282 1.396-1.091 2.141.493 4.399 2.024 6.584 1.192 1.7 2.426 3.458 1.88 4.527-.451.886-1.943.706-4.168.333-2.406-.404-5.132-.862-6.283 1.397-1.093 2.143.49 4.402 2.02 6.588 1.193 1.701 2.426 3.461 1.88 4.532-.453.888-1.945.709-4.171.336-2.406-.404-5.132-.861-6.283 1.399a1 1 0 101.782.908c.453-.887 1.945-.709 4.17-.336 2.407.402 5.132.859 6.284-1.399 1.093-2.143-.49-4.402-2.021-6.588-1.192-1.701-2.425-3.461-1.88-4.532.452-.885 1.943-.708 4.172-.333 2.405.403 5.13.861 6.28-1.397 1.093-2.141-.491-4.399-2.023-6.584-1.192-1.7-2.425-3.459-1.881-4.527.452-.886 1.945-.705 4.169-.332 2.404.406 5.13.864 6.282-1.396 1.092-2.141-.492-4.4-2.024-6.585-1.192-1.7-2.425-3.459-1.88-4.527.452-.885 1.944-.705 4.168-.332 2.403.405 5.13.864 6.282-1.396 1.092-2.141-.492-4.399-2.024-6.584-1.192-1.7-2.425-3.459-1.881-4.527zM59.514 7.376a1 1 0 00.61-1.904l-4.73-1.511a.995.995 0 00-1.256.647 1 1 0 00.647 1.257l4.729 1.511zM48.865 30.668a1 1 0 00.648 1.257l4.729 1.511a1 1 0 00.61-1.904l-4.73-1.511a.995.995 0 00-1.257.647zM25.393 2.225L20.663.713a.994.994 0 00-1.256.647.999.999 0 00.647 1.257l4.729 1.512a1 1 0 00.61-1.904zM26.292 16.863a1.001 1.001 0 001.229-.701l1.31-4.789a1.001 1.001 0 00-.702-1.229 1.008 1.008 0 00-1.229.701l-1.309 4.789a1 1 0 00.701 1.229zM71.007 23.319l-1.31 4.789a1.001 1.001 0 001.93.528l1.31-4.789a1.001 1.001 0 00-.701-1.229 1.007 1.007 0 00-1.23.701zM52.334 64.72c.439 0 .842-.292.964-.736l1.309-4.788a1.001 1.001 0 00-.701-1.229 1.007 1.007 0 00-1.23.701l-1.308 4.788a1.001 1.001 0 00.966 1.264zM29.391 48.915a.999.999 0 00.788-1.614l-3.052-3.916a.999.999 0 10-1.578 1.228l3.052 3.916a.996.996 0 00.79.386zM77.278 56.795a1 1 0 00-1.578 1.23l3.053 3.915a.998.998 0 001.403.174 1 1 0 00.174-1.404l-3.052-3.915z" fill="#050514"/></svg>