<svg width="40" height="40" viewBox="0 0 40 40" fill="none" xmlns="http://www.w3.org/2000/svg">
<path d="M20 3.47007C29.1138 3.47007 36.5286 10.8862 36.5286 20C36.5286 29.1138 29.1134 36.5299 20 36.5299C10.8866 36.5299 3.47007 29.1138 3.47007 20C3.47007 10.8857 10.8862 3.47007 20 3.47007ZM20 0C8.95382 0 0 8.95693 0 20C0 31.0431 8.95382 40 20 40C31.0448 40 39.9982 31.0431 39.9982 20C39.9982 8.95693 31.0448 0 20 0ZM16.0522 15.7997C16.0522 17.269 14.8616 18.4592 13.3927 18.4592C11.9239 18.4592 10.7333 17.2686 10.7333 15.7997C10.7333 14.3309 11.9244 13.1407 13.3927 13.1407C14.8616 13.1403 16.0522 14.3309 16.0522 15.7997ZM26.6073 13.1652C25.1384 13.1652 23.9465 14.3558 23.9465 15.8246C23.9465 17.2935 25.1389 18.4841 26.6073 18.4841C28.0765 18.4841 29.2667 17.293 29.2667 15.8246C29.2671 14.3558 28.0765 13.1652 26.6073 13.1652ZM28.377 27.9841C29.0738 27.3281 29.1085 26.2313 28.4512 25.534C27.7952 24.834 26.697 24.8011 25.9997 25.4566C24.3669 26.9944 22.2363 27.8374 20 27.8374C17.7623 27.8374 15.6304 26.9944 14.0003 25.4566C13.3003 24.8007 12.2048 24.834 11.5475 25.534C10.8902 26.2308 10.9235 27.3281 11.623 27.9841C13.8994 30.128 16.8757 31.3079 20 31.3079C23.1243 31.3079 26.0975 30.128 28.377 27.9841Z" fill="current"/>
</svg>
